<svg width="143" height="17" viewBox="0 0 143 17" fill="none" xmlns="http://www.w3.org/2000/svg">
<path d="M0 0H2.26172L7.64062 6.57422L13.0195 0H15.2812V16.6641H12.8086V4.20703L8.67188 9.22266H6.62109L2.47266 4.20703V16.6641H0V0ZM18.5625 0H31.4883V2.46094H21.0352V14.1914H31.4883V16.6641H18.5625V0ZM22.4414 6.76172H31.4883V9.22266H22.4414V6.76172ZM34.5469 0H43.3594C44.1172 0 44.8047 0.1875 45.4219 0.5625C46.0469 0.929687 46.543 1.42187 46.9102 2.03906C47.2852 2.65625 47.4727 3.34375 47.4727 4.10156V5.76562C47.4727 6.52344 47.2891 7.20703 46.9219 7.81641C46.5625 8.42578 46.0703 8.91016 45.4453 9.26953C44.8203 9.62891 44.1211 9.80859 43.3477 9.80859L48.3164 16.6641H45.3047L40.3359 9.80859H38.4258V7.34766H43.3594C43.8203 7.34766 44.2109 7.19141 44.5312 6.87891C44.8516 6.55859 45.0117 6.17578 45.0117 5.73047V4.10156C45.0117 3.64844 44.8516 3.26172 44.5312 2.94141C44.2109 2.62109 43.8203 2.46094 43.3594 2.46094H37.0195V16.6641H34.5469V0ZM50.6719 0H53.1445V6.75H54.375L60.9844 0H64.3945L56.332 8.23828L64.8984 16.6641H61.4414L53.8711 9.22266H53.1445V16.6641H50.6719V0ZM71.8008 0H74.8828L80.8477 16.6641H78.2109L76.3945 11.6484H71.7422L72.6328 9.1875H75.5039L73.3477 3.23438L68.4727 16.6641H65.8359L71.8008 0ZM79.9219 0H93.4922V2.46094H87.9492V16.6641H85.4648V2.46094H79.9219V0ZM95.6016 4.6875C95.6016 3.82031 95.8242 3.03516 96.2695 2.33203C96.7227 1.62109 97.3242 1.05469 98.0742 0.632812C98.8242 0.210938 99.6562 0 100.57 0H104.473C105.387 0 106.219 0.210938 106.969 0.632812C107.727 1.05469 108.328 1.62109 108.773 2.33203C109.219 3.03516 109.441 3.82031 109.441 4.6875V11.9766C109.441 12.8359 109.219 13.6211 108.773 14.332C108.328 15.043 107.727 15.6094 106.969 16.0312C106.219 16.4531 105.387 16.6641 104.473 16.6641H100.57C99.6562 16.6641 98.8242 16.4531 98.0742 16.0312C97.3242 15.6094 96.7227 15.043 96.2695 14.332C95.8242 13.6211 95.6016 12.8359 95.6016 11.9766V4.6875ZM98.0742 11.9883C98.0742 12.5977 98.3164 13.1211 98.8008 13.5586C99.293 13.9883 99.8828 14.2031 100.57 14.2031H104.473C105.168 14.2031 105.758 13.9883 106.242 13.5586C106.727 13.1211 106.969 12.5977 106.969 11.9883V4.67578C106.969 4.06641 106.727 3.54688 106.242 3.11719C105.758 2.67969 105.168 2.46094 104.473 2.46094H100.57C99.8828 2.46094 99.293 2.67969 98.8008 3.11719C98.3164 3.54688 98.0742 4.06641 98.0742 4.67578V11.9883ZM112.734 0H121.547C122.305 0 122.992 0.1875 123.609 0.5625C124.234 0.929687 124.73 1.42187 125.098 2.03906C125.473 2.65625 125.66 3.34375 125.66 4.10156V5.76562C125.66 6.52344 125.477 7.20703 125.109 7.81641C124.75 8.42578 124.258 8.91016 123.633 9.26953C123.008 9.62891 122.309 9.80859 121.535 9.80859L126.504 16.6641H123.492L118.523 9.80859H116.613V7.34766H121.547C122.008 7.34766 122.398 7.19141 122.719 6.87891C123.039 6.55859 123.199 6.17578 123.199 5.73047V4.10156C123.199 3.64844 123.039 3.26172 122.719 2.94141C122.398 2.62109 122.008 2.46094 121.547 2.46094H115.207V16.6641H112.734V0ZM128.625 0H134.801V1.47656H132.48V7.48828H130.992V1.47656H128.625V0ZM135.68 0H136.957L139.137 2.625L141.328 0H142.605V7.48828H141.117V2.61328L139.676 4.3125H138.621L137.168 2.61328V7.48828H135.68V0Z" fill="white"/>
</svg>
